<svg id="svg" version="1.1" xmlns="http://www.w3.org/2000/svg" xmlns:xlink="http://www.w3.org/1999/xlink" width="400" height="244.10774410774408" viewBox="0, 0, 400,244.10774410774408"><g id="svgg"><path id="path0" d="M0.000 213.384 L 0.000 228.620 2.609 228.620 L 5.219 228.620 5.219 221.380 L 5.219 214.141 9.764 214.141 L 14.310 214.141 14.310 211.364 L 14.310 208.586 9.764 208.586 L 5.219 208.586 5.219 205.640 L 5.219 202.694 9.764 202.694 L 14.310 202.694 14.310 200.421 L 14.310 198.148 7.155 198.148 L 0.000 198.148 0.000 213.384 M94.649 209.470 C 94.697 220.726,94.699 220.797,95.074 221.790 C 96.534 225.659,99.893 228.261,103.830 228.572 L 105.051 228.668 105.051 226.052 C 105.051 223.208,105.059 223.232,104.060 223.232 C 103.362 223.232,101.947 222.452,101.255 221.686 C 100.080 220.386,99.938 219.835,99.862 216.288 L 99.795 213.131 102.423 213.131 L 105.051 213.131 105.051 210.859 L 105.051 208.586 102.441 208.586 L 99.832 208.586 99.832 203.367 L 99.832 198.148 97.217 198.148 L 94.602 198.148 94.649 209.470 M130.808 213.384 L 130.808 228.620 133.418 228.620 L 136.027 228.620 136.027 213.384 L 136.027 198.148 133.418 198.148 L 130.808 198.148 130.808 213.384 M176.094 198.274 C 176.093 198.507,186.248 228.365,186.380 228.516 C 186.451 228.597,188.511 224.660,190.958 219.767 L 195.408 210.869 195.665 211.369 C 195.806 211.644,197.756 215.619,199.998 220.202 C 204.296 228.988,204.161 228.724,204.295 228.589 C 204.369 228.515,215.152 198.327,215.152 198.195 C 215.152 198.169,213.829 198.148,212.212 198.148 L 209.272 198.148 209.032 198.948 C 208.254 201.544,203.812 215.257,203.715 215.364 C 203.651 215.434,201.799 211.836,199.599 207.367 L 195.599 199.242 191.472 207.576 L 187.344 215.909 185.937 211.195 C 185.163 208.603,183.976 204.608,183.300 202.318 L 182.071 198.154 179.082 198.151 C 177.439 198.149,176.094 198.205,176.094 198.274 M251.347 213.384 L 251.347 228.620 254.040 228.620 L 256.734 228.620 256.734 224.816 L 256.734 221.011 259.049 221.074 C 263.233 221.187,264.798 222.681,264.952 226.709 L 265.026 228.620 267.724 228.620 L 270.423 228.620 270.312 226.389 C 270.144 223.000,269.510 221.188,267.838 219.315 L 266.970 218.343 267.571 217.679 C 269.548 215.491,270.364 213.119,270.369 209.554 L 270.370 208.586 267.697 208.586 L 265.023 208.586 264.937 210.143 C 264.719 214.062,263.148 215.526,259.049 215.630 L 256.734 215.689 256.734 206.919 L 256.734 198.148 254.040 198.148 L 251.347 198.148 251.347 213.384 M344.108 213.383 L 344.108 228.644 349.537 228.584 C 356.373 228.508,357.315 228.233,360.032 225.519 C 364.785 220.769,363.440 212.276,357.440 209.155 C 357.412 209.140,357.515 208.646,357.669 208.057 C 358.684 204.177,356.678 200.096,353.030 198.620 C 352.182 198.277,351.768 198.240,348.106 198.183 L 344.108 198.121 344.108 213.383 M362.796 198.190 C 362.803 198.483,375.043 228.484,375.153 228.480 C 375.268 228.476,388.721 198.451,388.721 198.199 C 388.721 198.171,387.300 198.149,385.564 198.149 L 382.407 198.150 378.977 207.030 C 377.091 211.913,375.499 215.963,375.439 216.029 C 375.380 216.096,373.934 212.099,372.225 207.149 L 369.118 198.148 365.956 198.148 C 364.217 198.148,362.795 198.167,362.796 198.190 M274.694 201.182 C 272.426 201.589,271.504 204.511,273.079 206.304 C 275.111 208.619,278.883 206.978,278.567 203.917 C 278.369 201.998,276.703 200.822,274.694 201.182 M315.904 204.588 C 315.188 206.277,314.533 207.858,314.448 208.099 C 314.308 208.498,314.190 208.547,313.165 208.636 C 304.631 209.372,300.877 220.046,306.990 226.197 C 309.179 228.400,311.181 229.184,314.659 229.200 C 318.758 229.219,320.740 232.981,318.453 236.403 C 315.409 240.957,308.220 237.960,309.473 232.660 L 309.692 231.734 307.503 230.850 C 306.298 230.363,305.185 229.925,305.029 229.875 C 304.112 229.584,303.742 234.891,304.530 237.025 C 307.291 244.505,316.162 246.459,321.816 240.833 C 325.449 237.217,325.679 231.128,322.335 227.101 L 321.574 226.186 322.306 225.404 C 326.258 221.179,325.064 213.564,319.929 210.244 C 319.339 209.862,318.855 209.529,318.855 209.504 C 318.855 209.479,319.417 208.145,320.104 206.539 C 320.791 204.933,321.379 203.518,321.409 203.394 C 321.461 203.184,317.898 201.515,317.399 201.515 C 317.292 201.515,316.619 202.898,315.904 204.588 M350.682 203.535 C 350.848 203.535,351.220 203.734,351.508 203.976 C 353.461 205.619,352.515 208.418,350.007 208.418 L 349.327 208.418 349.327 205.871 L 349.327 203.325 349.853 203.430 C 350.142 203.488,350.515 203.535,350.682 203.535 M24.747 208.848 C 21.030 209.650,17.675 213.073,17.015 216.740 C 16.912 217.314,16.835 220.054,16.835 223.179 L 16.835 228.620 19.529 228.620 L 22.222 228.620 22.224 223.190 C 22.225 217.830,22.231 217.750,22.625 216.902 C 23.368 215.308,25.191 213.978,26.641 213.975 L 27.273 213.973 27.273 211.279 L 27.273 208.586 26.557 208.599 C 26.164 208.607,25.349 208.719,24.747 208.848 M37.879 208.771 C 29.772 210.353,26.902 220.824,33.015 226.515 C 36.653 229.902,42.326 230.166,46.338 227.134 C 47.345 226.373,47.407 226.612,45.569 224.168 L 44.000 222.082 43.170 222.740 C 40.944 224.504,37.822 224.165,36.170 221.980 C 34.981 220.406,34.366 220.539,42.861 220.539 L 50.337 220.539 50.337 218.837 C 50.337 212.171,44.524 207.473,37.879 208.771 M60.669 208.919 C 52.064 211.175,50.183 222.722,57.625 227.605 C 61.343 230.044,66.912 229.654,70.148 226.727 L 70.514 226.395 68.897 224.237 L 67.280 222.079 66.608 222.654 C 64.170 224.741,60.355 224.021,58.918 221.203 L 58.579 220.539 66.061 220.539 L 73.542 220.539 73.652 219.487 C 74.362 212.703,67.510 207.125,60.669 208.919 M82.211 208.825 C 78.902 209.628,77.035 211.814,77.026 214.899 C 77.015 218.276,78.585 219.958,82.609 220.882 C 83.517 221.090,84.552 221.331,84.910 221.416 C 86.264 221.741,86.746 222.808,85.901 223.607 C 84.603 224.835,81.836 224.509,79.790 222.889 L 79.147 222.380 78.247 223.522 C 75.868 226.538,75.978 226.213,77.099 226.933 C 83.770 231.214,92.146 228.514,91.886 222.166 C 91.741 218.594,90.484 217.326,86.187 216.419 C 83.715 215.897,82.769 215.447,82.689 214.756 C 82.493 213.045,85.592 212.716,87.432 214.252 L 87.911 214.652 89.088 213.597 C 89.735 213.017,90.533 212.311,90.862 212.029 C 92.772 210.386,86.046 207.895,82.211 208.825 M107.453 214.689 C 107.553 222.619,107.767 223.420,110.532 226.217 C 113.708 229.429,117.979 230.126,122.628 228.192 C 122.931 228.065,122.943 228.119,122.838 229.129 C 122.588 231.512,121.077 233.173,118.692 233.685 L 117.845 233.866 117.845 236.462 L 117.845 239.057 118.705 239.057 C 122.601 239.057,126.676 235.804,127.879 231.734 C 128.148 230.822,128.183 229.647,128.239 219.655 L 128.301 208.586 125.606 208.586 L 122.912 208.586 122.862 214.352 C 122.814 219.801,122.792 220.160,122.457 220.884 C 120.599 224.900,115.092 224.900,113.233 220.884 C 112.898 220.160,112.876 219.801,112.828 214.352 L 112.778 208.586 110.077 208.586 L 107.376 208.586 107.453 214.689 M146.465 208.850 C 140.076 210.233,136.690 217.713,139.727 223.731 C 142.554 229.330,150.201 231.001,155.254 227.124 C 156.209 226.391,156.259 226.566,154.373 224.068 L 152.843 222.042 152.067 222.725 C 150.227 224.345,147.507 224.264,145.533 222.532 C 145.027 222.087,144.276 220.951,144.276 220.630 C 144.276 220.580,147.647 220.539,151.768 220.539 L 159.259 220.539 159.257 218.981 C 159.246 212.110,153.269 207.376,146.465 208.850 M223.218 208.816 C 215.366 210.630,212.558 220.472,218.264 226.181 C 224.791 232.710,235.860 228.219,235.902 219.024 C 235.932 212.191,229.837 207.286,223.218 208.816 M246.465 208.848 C 242.924 209.612,239.773 212.621,238.886 216.087 C 238.586 217.262,238.552 217.959,238.552 223.007 L 238.552 228.620 241.147 228.620 L 243.743 228.620 243.814 223.274 C 243.860 219.896,243.958 217.712,244.080 217.340 C 244.620 215.694,246.794 213.973,248.331 213.973 L 248.990 213.973 248.990 211.279 L 248.990 208.586 248.274 208.599 C 247.881 208.607,247.066 208.719,246.465 208.848 M272.727 218.603 L 272.727 228.620 275.421 228.620 L 278.114 228.620 278.114 218.603 L 278.114 208.586 275.421 208.586 L 272.727 208.586 272.727 218.603 M288.552 208.847 C 284.825 209.647,281.599 212.962,280.889 216.724 C 280.702 217.712,280.640 219.368,280.640 223.331 L 280.640 228.620 283.333 228.620 L 286.027 228.620 286.027 223.346 C 286.027 217.308,286.071 217.047,287.328 215.649 C 290.124 212.540,295.216 213.979,295.950 218.086 C 296.048 218.636,296.128 221.231,296.128 223.852 L 296.128 228.620 298.737 228.620 L 301.347 228.620 301.347 222.931 C 301.347 218.390,301.295 217.040,301.091 216.239 C 299.725 210.890,294.203 207.635,288.552 208.847 M354.821 213.845 C 358.070 215.541,358.510 220.077,355.637 222.260 C 354.521 223.109,354.006 223.244,351.473 223.353 L 349.327 223.445 349.327 218.356 L 349.327 213.267 351.641 213.330 C 353.759 213.388,354.030 213.432,354.821 213.845 M316.275 214.315 C 320.347 216.062,320.213 222.007,316.066 223.559 C 311.281 225.349,307.229 219.444,310.605 215.599 C 312.033 213.973,314.287 213.462,316.275 214.315 M42.172 214.369 C 42.964 214.739,44.276 215.962,44.276 216.330 C 44.276 216.438,42.718 216.498,39.963 216.498 C 35.142 216.498,35.461 216.608,36.607 215.341 C 37.842 213.977,40.381 213.533,42.172 214.369 M65.404 214.370 C 65.867 214.587,66.587 215.135,67.003 215.589 L 67.761 216.414 63.485 216.459 C 58.803 216.508,58.883 216.520,59.366 215.874 C 60.695 214.093,63.381 213.424,65.404 214.370 M151.388 214.528 C 152.102 214.946,153.199 216.061,153.199 216.368 C 153.199 216.440,151.264 216.498,148.900 216.498 C 144.083 216.498,144.255 216.557,145.487 215.329 C 146.938 213.882,149.656 213.513,151.388 214.528 M227.634 214.369 C 231.647 216.326,231.468 222.016,227.346 223.559 C 223.001 225.184,218.957 220.391,221.299 216.394 C 222.517 214.316,225.543 213.349,227.634 214.369 " stroke="none" fill="#fcfcfc" fill-rule="evenodd"></path><path id="path1" d="M0.000 95.370 L 0.000 190.741 10.185 190.741 L 20.370 190.741 20.370 95.370 L 20.370 0.000 10.185 0.000 L 0.000 0.000 0.000 95.370 " stroke="none" fill="#04e4a3" fill-rule="evenodd"></path><path id="path2" d="M35.101 13.637 L 35.101 27.274 69.108 27.231 L 103.114 27.189 103.070 40.825 L 103.026 54.461 122.810 54.418 L 142.593 54.374 142.611 61.741 C 142.621 65.793,142.615 69.687,142.598 70.394 C 142.580 71.134,142.640 71.727,142.740 71.789 C 142.836 71.848,142.871 72.011,142.817 72.151 C 142.702 72.450,143.252 76.262,143.411 76.263 C 143.470 76.264,143.533 76.546,143.551 76.892 C 143.569 77.237,143.656 77.543,143.744 77.572 C 143.832 77.602,143.865 77.773,143.818 77.954 C 143.768 78.143,143.816 78.283,143.930 78.283 C 144.039 78.283,144.082 78.356,144.027 78.446 C 143.811 78.795,146.273 84.848,146.631 84.848 C 146.694 84.848,146.745 84.950,146.745 85.075 C 146.745 85.391,148.627 88.215,148.837 88.215 C 148.932 88.215,148.969 88.281,148.920 88.361 C 148.871 88.440,149.119 88.819,149.472 89.201 C 149.826 89.584,150.085 89.926,150.050 89.961 C 149.920 90.091,154.050 94.122,154.211 94.022 C 154.302 93.966,154.381 94.019,154.385 94.140 C 154.394 94.408,156.844 96.352,157.173 96.352 C 157.302 96.352,157.370 96.390,157.324 96.436 C 157.174 96.585,159.938 98.333,160.132 98.213 C 160.238 98.148,160.275 98.171,160.216 98.266 C 160.088 98.474,161.680 99.370,161.871 99.197 C 161.946 99.130,161.956 99.163,161.893 99.272 C 161.789 99.455,162.161 99.677,162.523 99.647 C 162.606 99.640,162.719 99.707,162.776 99.796 C 162.956 100.078,165.226 101.134,165.470 101.049 C 165.598 101.003,165.657 101.041,165.601 101.132 C 165.481 101.327,166.283 101.732,166.511 101.592 C 166.597 101.539,166.667 101.566,166.667 101.653 C 166.667 101.806,167.329 102.127,167.845 102.225 C 167.984 102.251,168.137 102.325,168.185 102.388 C 168.330 102.579,170.914 103.531,171.054 103.445 C 171.125 103.401,171.209 103.439,171.240 103.529 C 171.271 103.620,171.486 103.715,171.717 103.741 C 171.949 103.767,172.183 103.848,172.237 103.923 C 172.292 103.997,172.500 104.070,172.700 104.085 C 172.900 104.100,173.064 104.164,173.064 104.228 C 173.064 104.355,174.706 104.808,175.042 104.773 C 175.158 104.761,175.253 104.809,175.253 104.879 C 175.253 105.075,177.248 105.589,177.485 105.453 C 177.600 105.387,177.636 105.397,177.566 105.474 C 177.430 105.623,181.469 106.930,181.674 106.803 C 181.741 106.762,181.846 106.811,181.908 106.911 C 181.970 107.012,182.122 107.055,182.245 107.007 C 182.369 106.960,182.497 107.003,182.530 107.103 C 182.564 107.202,182.826 107.293,183.114 107.304 C 183.402 107.314,183.608 107.370,183.574 107.426 C 183.505 107.538,185.949 108.304,186.364 108.302 C 186.503 108.301,186.654 108.350,186.700 108.412 C 186.881 108.650,188.879 109.285,189.073 109.166 C 189.190 109.093,189.234 109.109,189.176 109.203 C 189.089 109.344,191.188 110.168,191.667 110.181 C 191.759 110.183,191.873 110.228,191.919 110.280 C 192.016 110.389,195.916 111.909,196.296 111.986 C 196.435 112.014,196.587 112.079,196.633 112.130 C 196.851 112.371,198.517 112.963,198.684 112.860 C 198.792 112.793,198.827 112.818,198.765 112.918 C 198.645 113.112,200.446 113.914,200.817 113.832 C 200.942 113.805,201.001 113.851,200.949 113.936 C 200.853 114.092,202.479 114.934,202.727 114.857 C 202.801 114.834,202.862 114.881,202.862 114.963 C 202.862 115.142,203.888 115.590,204.125 115.514 C 204.217 115.484,204.238 115.515,204.171 115.582 C 204.027 115.726,206.739 117.442,206.987 117.365 C 207.079 117.336,207.102 117.365,207.038 117.429 C 206.973 117.494,207.276 117.830,207.711 118.176 C 208.485 118.793,209.985 120.340,210.049 120.589 C 210.170 121.055,210.521 121.886,210.598 121.886 C 210.649 121.886,210.671 131.204,210.647 142.593 L 210.603 163.300 197.053 163.300 L 183.502 163.300 183.502 156.481 L 183.502 149.663 163.044 149.663 L 142.587 149.663 142.593 157.197 C 142.599 164.574,142.731 166.809,143.145 166.553 C 143.246 166.491,143.267 166.529,143.196 166.644 C 143.051 166.879,143.394 168.013,143.610 168.013 C 143.693 168.013,143.717 168.127,143.664 168.266 C 143.610 168.405,143.651 168.519,143.753 168.519 C 143.856 168.519,143.920 168.577,143.897 168.648 C 143.822 168.881,144.487 170.195,144.634 170.105 C 144.713 170.056,144.739 170.115,144.693 170.237 C 144.504 170.729,148.988 176.893,149.365 176.660 C 149.473 176.593,149.498 176.626,149.428 176.740 C 149.278 176.983,155.194 183.032,155.435 182.883 C 155.530 182.824,155.559 182.855,155.499 182.952 C 155.385 183.137,156.549 184.123,156.789 184.044 C 156.865 184.019,156.882 184.072,156.826 184.162 C 156.722 184.331,157.383 184.783,157.630 184.712 C 157.707 184.690,157.728 184.739,157.677 184.820 C 157.507 185.096,160.700 187.434,161.007 187.259 C 161.111 187.200,161.138 187.214,161.068 187.292 C 160.919 187.455,162.285 188.406,162.489 188.281 C 162.564 188.234,162.626 188.265,162.626 188.350 C 162.626 188.576,164.616 189.601,164.815 189.478 C 164.907 189.421,164.983 189.451,164.983 189.545 C 164.983 189.768,167.665 190.615,168.052 190.514 C 168.216 190.471,168.392 190.504,168.444 190.588 C 168.822 191.200,227.541 190.694,227.747 190.077 C 227.776 189.989,227.908 189.960,228.041 190.011 C 228.174 190.062,228.283 190.015,228.283 189.907 C 228.283 189.799,228.348 189.751,228.428 189.800 C 228.657 189.942,229.969 189.366,229.851 189.176 C 229.793 189.082,229.827 189.055,229.925 189.116 C 230.161 189.261,230.664 189.065,230.546 188.873 C 230.495 188.791,230.584 188.774,230.743 188.835 C 230.954 188.916,230.995 188.886,230.894 188.723 C 230.802 188.575,230.821 188.540,230.950 188.620 C 231.196 188.772,233.010 187.700,232.876 187.483 C 232.821 187.394,232.851 187.368,232.942 187.424 C 233.139 187.546,234.343 186.765,234.343 186.516 C 234.343 186.421,234.413 186.387,234.498 186.439 C 234.583 186.492,234.801 186.348,234.981 186.118 C 235.161 185.889,235.344 185.737,235.386 185.779 C 235.476 185.869,237.527 184.186,238.983 182.828 C 241.375 180.598,242.593 179.392,242.593 179.253 C 242.593 179.170,242.818 178.913,243.094 178.681 C 243.369 178.449,243.578 178.170,243.557 178.061 C 243.536 177.951,243.606 177.879,243.714 177.899 C 243.878 177.930,244.516 177.246,246.102 175.337 C 246.884 174.395,247.125 174.021,247.039 173.882 C 246.987 173.798,247.007 173.750,247.083 173.775 C 247.160 173.801,247.228 173.784,247.235 173.737 C 247.243 173.691,247.490 173.389,247.785 173.066 C 248.080 172.743,248.285 172.384,248.241 172.268 C 248.197 172.153,248.252 172.076,248.365 172.098 C 248.477 172.120,248.559 172.006,248.546 171.845 C 248.533 171.684,248.579 171.587,248.648 171.630 C 248.826 171.740,249.683 170.112,249.534 169.947 C 249.466 169.873,249.499 169.862,249.607 169.924 C 249.735 169.997,249.971 169.623,250.281 168.859 C 250.736 167.734,251.010 167.385,251.010 167.929 C 251.010 168.068,251.090 168.182,251.188 168.182 C 251.286 168.182,251.320 168.258,251.263 168.350 C 251.205 168.443,251.251 168.519,251.365 168.519 C 251.478 168.519,251.524 168.565,251.467 168.623 C 250.974 169.116,256.951 177.705,257.630 177.479 C 257.707 177.454,257.728 177.500,257.677 177.582 C 257.626 177.664,258.189 178.313,258.927 179.024 C 259.665 179.736,260.269 180.390,260.269 180.479 C 260.269 180.567,260.339 180.640,260.423 180.640 C 260.508 180.640,261.242 181.317,262.055 182.145 C 262.868 182.973,263.586 183.617,263.651 183.577 C 263.716 183.537,263.815 183.622,263.870 183.766 C 263.926 183.912,264.057 183.975,264.166 183.907 C 264.282 183.836,264.317 183.860,264.251 183.966 C 264.108 184.197,266.631 186.237,266.874 186.087 C 266.975 186.025,267.007 186.053,266.947 186.151 C 266.836 186.329,267.532 186.877,267.946 186.938 C 268.070 186.956,268.231 187.036,268.303 187.115 C 268.375 187.195,268.321 187.203,268.182 187.134 C 268.043 187.064,268.119 187.165,268.350 187.356 C 268.582 187.548,268.882 187.664,269.018 187.614 C 269.155 187.565,269.211 187.579,269.143 187.647 C 268.994 187.796,269.873 188.399,270.065 188.280 C 270.140 188.234,270.202 188.279,270.202 188.381 C 270.202 188.621,272.676 189.782,272.896 189.646 C 272.989 189.589,273.064 189.627,273.064 189.731 C 273.064 189.834,273.140 189.872,273.232 189.815 C 273.325 189.758,273.401 189.779,273.401 189.862 C 273.401 190.052,274.700 190.453,274.905 190.327 C 274.988 190.275,275.087 190.329,275.126 190.445 C 275.203 190.677,305.367 190.864,305.884 190.636 C 306.027 190.573,306.267 190.535,306.416 190.553 C 306.922 190.614,309.948 189.554,309.827 189.359 C 309.760 189.251,309.789 189.221,309.895 189.287 C 310.122 189.427,311.297 188.885,311.179 188.695 C 311.132 188.618,311.198 188.596,311.326 188.645 C 311.823 188.836,316.724 185.265,319.017 183.041 C 319.616 182.461,320.149 181.987,320.204 181.987 C 320.433 181.987,321.544 180.690,321.426 180.560 C 321.355 180.482,321.380 180.465,321.482 180.523 C 321.715 180.656,322.440 179.909,322.266 179.716 C 322.196 179.639,322.223 179.624,322.326 179.683 C 322.527 179.797,324.359 177.807,324.280 177.560 C 324.255 177.481,324.308 177.462,324.398 177.517 C 324.488 177.573,324.647 177.460,324.751 177.267 C 324.890 177.006,324.995 176.961,325.153 177.092 C 325.271 177.190,325.424 177.214,325.492 177.145 C 325.561 177.076,325.592 177.106,325.561 177.210 C 325.472 177.513,326.253 178.476,326.482 178.345 C 326.593 178.281,326.625 178.294,326.553 178.373 C 326.379 178.564,328.289 180.485,328.522 180.352 C 328.622 180.295,328.648 180.311,328.579 180.387 C 328.408 180.575,328.783 180.999,329.001 180.864 C 329.098 180.805,329.127 180.836,329.067 180.933 C 328.890 181.220,333.006 184.952,333.241 184.717 C 333.307 184.650,333.336 184.682,333.305 184.788 C 333.231 185.041,334.696 186.203,334.924 186.073 C 335.021 186.018,335.047 186.033,334.980 186.107 C 334.849 186.252,336.546 187.550,336.725 187.441 C 336.785 187.405,336.880 187.497,336.937 187.645 C 336.997 187.803,337.147 187.873,337.300 187.814 C 337.443 187.759,337.519 187.779,337.470 187.859 C 337.361 188.036,339.300 189.095,339.453 188.942 C 339.513 188.882,339.562 188.910,339.562 189.004 C 339.562 189.224,340.851 189.807,341.269 189.775 C 341.463 189.761,341.545 189.824,341.476 189.936 C 341.401 190.057,341.486 190.088,341.725 190.025 C 341.925 189.973,342.053 189.988,342.009 190.058 C 341.907 190.223,343.713 190.628,343.937 190.490 C 344.031 190.432,344.108 190.465,344.108 190.564 C 344.108 190.766,373.443 190.734,374.705 190.531 C 375.678 190.374,377.847 189.608,377.918 189.395 C 377.949 189.301,378.038 189.263,378.115 189.310 C 378.193 189.358,378.389 189.264,378.552 189.101 C 378.715 188.938,378.856 188.843,378.865 188.889 C 378.875 188.935,379.200 188.830,379.588 188.655 C 380.002 188.469,380.250 188.259,380.187 188.150 C 380.129 188.047,380.142 188.019,380.218 188.087 C 380.498 188.341,385.440 184.787,385.244 184.472 C 385.183 184.372,385.212 184.340,385.308 184.400 C 385.405 184.459,385.966 184.082,386.555 183.560 C 387.993 182.289,388.216 182.045,388.079 181.893 C 388.015 181.822,388.045 181.811,388.146 181.868 C 388.374 181.998,389.618 180.752,389.439 180.573 C 389.368 180.502,389.423 180.469,389.562 180.499 C 389.702 180.531,389.794 180.456,389.769 180.333 C 389.743 180.210,389.787 180.150,389.866 180.199 C 390.065 180.322,391.791 178.547,391.629 178.385 C 391.557 178.314,391.578 178.280,391.675 178.311 C 391.925 178.390,393.791 176.262,393.659 176.049 C 393.599 175.953,393.628 175.922,393.723 175.980 C 394.011 176.158,397.044 172.142,396.854 171.834 C 396.796 171.741,396.823 171.711,396.913 171.766 C 397.090 171.876,398.416 169.582,398.377 169.234 C 398.364 169.118,398.412 169.024,398.483 169.024 C 398.676 169.024,399.356 167.355,399.239 167.167 C 399.184 167.077,399.210 167.003,399.297 167.003 C 399.522 167.003,399.866 165.524,399.736 165.115 C 399.663 164.887,399.689 164.811,399.814 164.888 C 399.941 164.966,400.000 164.731,400.000 164.151 L 400.000 163.300 345.539 163.300 L 291.078 163.300 291.036 81.692 L 290.993 0.084 270.539 0.084 L 250.084 0.084 250.000 10.563 L 249.916 21.042 249.443 20.201 C 249.183 19.739,248.912 19.360,248.840 19.360 C 248.768 19.360,248.709 19.264,248.709 19.147 C 248.709 18.782,247.780 17.508,247.597 17.621 C 247.501 17.680,247.473 17.648,247.534 17.549 C 247.805 17.109,240.913 9.195,240.356 9.306 C 240.252 9.327,240.160 9.230,240.152 9.091 C 240.143 8.952,240.039 8.859,239.921 8.885 C 239.802 8.910,239.747 8.864,239.798 8.781 C 239.903 8.611,238.214 7.130,237.996 7.201 C 237.918 7.227,237.895 7.181,237.945 7.100 C 238.117 6.822,232.884 2.811,232.525 2.945 C 232.404 2.990,232.343 2.965,232.390 2.891 C 232.566 2.606,229.244 0.916,228.912 1.121 C 228.815 1.181,228.782 1.155,228.839 1.064 C 228.897 0.969,228.380 0.720,227.647 0.490 L 226.352 0.084 197.225 0.087 C 181.205 0.089,167.839 0.143,167.524 0.209 C 166.039 0.516,162.290 2.156,162.290 2.499 C 162.290 2.575,162.193 2.637,162.074 2.637 C 161.780 2.637,160.943 3.199,160.943 3.396 C 160.943 3.484,160.880 3.517,160.804 3.470 C 160.497 3.280,155.317 7.495,155.498 7.788 C 155.558 7.885,155.532 7.918,155.440 7.861 C 155.215 7.722,151.659 11.104,151.796 11.326 C 151.859 11.427,151.822 11.449,151.708 11.379 C 151.597 11.310,151.465 11.382,151.402 11.547 C 151.341 11.706,151.001 12.098,150.647 12.418 C 150.293 12.738,150.046 13.069,150.098 13.154 C 150.150 13.239,150.114 13.287,150.018 13.262 C 149.625 13.158,146.193 17.629,144.829 20.023 L 144.108 21.288 144.108 10.644 L 144.108 0.000 89.604 0.000 L 35.101 0.000 35.101 13.637 M304.545 74.916 L 304.545 149.832 325.084 149.832 L 345.623 149.832 345.623 74.916 L 345.623 0.000 325.084 0.000 L 304.545 0.000 304.545 74.916 M359.133 74.874 L 359.175 149.747 379.545 149.790 L 399.916 149.833 399.916 74.916 L 399.916 0.000 379.503 0.000 L 359.091 0.000 359.133 74.874 M210.606 34.092 L 210.606 40.912 230.345 40.868 L 250.084 40.825 250.022 76.094 C 249.988 95.492,249.926 111.231,249.884 111.069 C 249.841 110.907,249.732 110.774,249.641 110.774 C 249.550 110.774,249.522 110.699,249.579 110.606 C 249.636 110.513,249.598 110.438,249.495 110.438 C 249.391 110.438,249.350 110.368,249.402 110.283 C 249.531 110.075,248.655 108.081,248.435 108.081 C 248.339 108.081,248.309 108.032,248.369 107.972 C 248.539 107.802,247.290 105.546,247.092 105.668 C 246.991 105.731,246.968 105.694,247.038 105.581 C 247.193 105.330,245.805 103.339,245.575 103.481 C 245.480 103.539,245.451 103.509,245.510 103.413 C 245.638 103.206,244.648 101.915,244.413 101.982 C 244.324 102.008,244.291 101.964,244.339 101.886 C 244.462 101.687,241.679 98.949,241.518 99.111 C 241.445 99.183,241.411 99.159,241.442 99.057 C 241.545 98.718,237.797 95.886,237.494 96.074 C 237.387 96.139,237.374 96.095,237.460 95.957 C 237.560 95.794,237.520 95.764,237.308 95.845 C 237.150 95.906,237.058 95.894,237.104 95.819 C 237.200 95.664,235.097 94.388,234.744 94.388 C 234.616 94.388,234.512 94.329,234.512 94.256 C 234.512 94.039,231.989 92.908,231.785 93.034 C 231.679 93.099,231.645 93.074,231.706 92.975 C 231.904 92.654,223.217 89.521,222.929 89.810 C 222.881 89.857,222.742 89.812,222.619 89.710 C 222.496 89.608,222.276 89.570,222.131 89.626 C 221.960 89.691,221.910 89.659,221.987 89.534 C 222.068 89.403,221.992 89.371,221.752 89.434 C 221.556 89.485,221.373 89.457,221.345 89.372 C 221.317 89.286,221.021 89.192,220.689 89.163 C 220.356 89.133,220.008 89.061,219.915 89.004 C 219.822 88.946,219.581 88.931,219.380 88.969 C 219.179 89.008,219.049 88.983,219.092 88.915 C 219.156 88.811,218.090 88.558,216.414 88.279 C 216.229 88.248,215.623 88.110,215.067 87.971 C 214.512 87.832,213.906 87.764,213.721 87.819 C 213.535 87.875,213.439 87.862,213.507 87.791 C 213.648 87.642,207.253 85.998,207.042 86.129 C 206.965 86.176,206.902 86.130,206.902 86.026 C 206.902 85.909,206.765 85.880,206.545 85.949 C 206.279 86.034,206.221 86.007,206.320 85.848 C 206.417 85.691,206.369 85.665,206.144 85.752 C 205.974 85.817,205.787 85.792,205.728 85.697 C 205.669 85.601,205.417 85.507,205.167 85.486 C 204.918 85.465,204.714 85.386,204.714 85.309 C 204.714 85.233,204.619 85.186,204.503 85.205 C 204.388 85.224,204.071 85.148,203.800 85.036 C 203.528 84.925,203.150 84.818,202.958 84.799 C 202.766 84.780,202.572 84.723,202.525 84.673 C 202.479 84.623,201.646 84.292,200.673 83.937 C 199.701 83.582,198.072 82.926,197.054 82.479 C 196.035 82.032,195.088 81.644,194.949 81.616 C 194.811 81.588,194.659 81.517,194.613 81.458 C 194.394 81.180,192.295 80.150,192.173 80.261 C 192.096 80.330,192.088 80.293,192.155 80.177 C 192.221 80.061,192.196 79.966,192.097 79.966 C 191.999 79.966,191.883 79.964,191.839 79.962 C 191.795 79.960,191.558 79.772,191.313 79.544 C 191.067 79.317,190.801 79.172,190.720 79.222 C 190.639 79.272,190.572 79.245,190.572 79.163 C 190.572 78.964,189.132 77.935,188.995 78.036 C 188.937 78.079,188.923 78.068,188.964 78.012 C 189.058 77.882,188.026 77.006,187.845 77.062 C 187.771 77.085,187.729 77.039,187.753 76.960 C 187.776 76.881,187.232 76.218,186.544 75.487 C 185.856 74.756,185.306 74.140,185.321 74.117 C 185.390 74.016,184.782 72.917,184.688 72.975 C 184.631 73.010,184.573 72.912,184.560 72.757 C 184.546 72.602,184.343 71.944,184.107 71.296 C 183.871 70.648,183.677 69.872,183.674 69.571 C 183.672 69.270,183.613 69.024,183.544 69.024 C 183.474 69.024,183.437 62.660,183.461 54.882 L 183.505 40.741 163.807 40.741 L 144.108 40.741 144.108 34.007 L 144.108 27.273 177.357 27.273 L 210.606 27.273 210.606 34.092 M35.101 115.741 L 35.101 190.741 55.513 190.741 L 75.926 190.741 75.926 149.916 L 75.926 109.091 96.338 109.091 L 116.751 109.091 116.751 95.370 L 116.751 81.650 96.338 81.650 L 75.926 81.650 75.926 61.195 L 75.926 40.741 55.513 40.741 L 35.101 40.741 35.101 115.741 " stroke="none" fill="#1c54ac" fill-rule="evenodd"></path><path id="path3" d="M35.097 13.636 C 35.097 21.090,35.118 24.139,35.143 20.412 C 35.168 16.686,35.168 10.587,35.143 6.860 C 35.118 3.133,35.097 6.183,35.097 13.636 M399.915 74.916 C 399.915 116.073,399.934 132.910,399.958 112.332 C 399.981 91.753,399.981 58.079,399.958 37.500 C 399.934 16.921,399.915 33.758,399.915 74.916 M35.100 115.741 C 35.100 156.944,35.120 173.775,35.143 153.143 C 35.167 132.510,35.167 98.798,35.143 78.227 C 35.120 57.656,35.100 74.537,35.100 115.741 M113.005 54.503 C 118.445 54.528,127.346 54.528,132.786 54.503 C 138.226 54.479,133.775 54.459,122.896 54.459 C 112.016 54.459,107.565 54.479,113.005 54.503 M116.747 95.370 C 116.747 102.870,116.768 105.963,116.793 102.243 C 116.818 98.523,116.818 92.387,116.793 88.607 C 116.768 84.827,116.747 87.870,116.747 95.370 " stroke="none" fill="#1c59b4" fill-rule="evenodd"></path><path id="path4" d="" stroke="none" fill="#1c5cac" fill-rule="evenodd"></path></g></svg>